<svg xmlns="http://www.w3.org/2000/svg" viewBox="-2 29 530 81" role="img" aria-labelledby="title">
  <title id="title">Cybermen</title>
  <path fill="#061527" d="M35.95 105.44Q25.63 105.44 18.22 100.90Q10.80 96.37 6.84 88.26Q2.88 80.14 2.88 69.44Q2.88 58.74 6.84 50.62Q10.80 42.51 18.22 37.98Q25.63 33.44 35.95 33.44Q47.90 33.44 55.87 39.42Q63.84 45.39 67.06 55.52L55.39 58.74Q53.38 51.97 48.53 48.15Q43.68 44.34 35.95 44.34Q28.99 44.34 24.36 47.46Q19.73 50.58 17.40 56.22Q15.07 61.86 15.02 69.44Q15.02 76.98 17.35 82.62Q19.68 88.26 24.34 91.40Q28.99 94.54 35.95 94.54Q43.68 94.54 48.53 90.70Q53.38 86.86 55.39 80.14L67.06 83.36Q63.84 93.49 55.87 99.46Q47.90 105.44 35.95 105.44M103.25 104L91.54 104L91.54 75.68L68.02 34.88L81.50 34.88L97.39 62.43L113.23 34.88L126.72 34.88L103.25 75.68L103.25 104M163.63 104L133.44 104L133.44 34.88L160.85 34.88Q167.86 34.88 172.34 37.69Q176.83 40.50 179.02 44.86Q181.20 49.23 181.20 53.89Q181.20 59.60 178.51 63.58Q175.82 67.57 171.12 68.96L171.12 66.56Q177.65 68.05 181.03 72.73Q184.42 77.41 184.42 83.46Q184.42 89.60 182.09 94.21Q179.76 98.82 175.10 101.41Q170.45 104 163.63 104M145.15 73.28L145.15 93.10L162.19 93.10Q165.22 93.10 167.62 91.88Q170.02 90.66 171.38 88.42Q172.75 86.19 172.75 83.12Q172.75 80.34 171.55 78.13Q170.35 75.92 168.05 74.60Q165.74 73.28 162.53 73.28L145.15 73.28M145.15 45.68L145.15 62.48L160.70 62.48Q163.20 62.48 165.17 61.52Q167.14 60.56 168.29 58.69Q169.44 56.82 169.44 54.08Q169.44 50.48 167.14 48.08Q164.83 45.68 160.70 45.68L145.15 45.68M238.66 104L194.02 104L194.02 34.88L238.66 34.88L238.66 45.73L205.58 45.73L205.58 62.77L232.90 62.77L232.90 73.62L205.58 73.62L205.58 93.15L238.66 93.15L238.66 104M261.74 104L250.18 104L250.18 34.88L278.74 34.88Q279.74 34.88 281.35 34.95Q282.96 35.02 284.26 35.26Q290.26 36.18 294.17 39.25Q298.08 42.32 299.98 47Q301.87 51.68 301.87 57.39Q301.87 65.84 297.60 71.91Q293.33 77.98 284.50 79.42L279.55 79.86L261.74 79.86L261.74 104M302.98 104L289.87 104L276.24 75.87L288 73.28L302.98 104M261.74 45.73L261.74 69.06L278.26 69.06Q279.22 69.06 280.42 68.96Q281.62 68.86 282.62 68.58Q285.50 67.86 287.16 66.03Q288.82 64.21 289.51 61.90Q290.21 59.60 290.21 57.39Q290.21 55.18 289.51 52.86Q288.82 50.53 287.16 48.70Q285.50 46.88 282.62 46.16Q281.62 45.87 280.42 45.80Q279.22 45.73 278.26 45.73L261.74 45.73M324.38 104L313.54 104L313.54 34.88L323.95 34.88L347.86 83.84L371.76 34.88L382.18 34.88L382.18 104L371.38 104L371.38 59.70L350.16 104L345.55 104L324.38 59.70L324.38 104M440.26 104L395.62 104L395.62 34.88L440.26 34.88L440.26 45.73L407.18 45.73L407.18 62.77L434.50 62.77L434.50 73.62L407.18 73.62L407.18 93.15L440.26 93.15L440.26 104M463.49 104L451.78 104L451.78 34.88L463.49 34.88L495.55 83.60L495.55 34.88L507.26 34.88L507.26 104L495.55 104L463.49 55.28"/>
  <circle fill="#4f9b74" cx="518.26" cy="97.00" r="4.8"/>
</svg>
